<svg xmlns="http://www.w3.org/2000/svg" width="29" height="29" viewBox="0 0 29 29" fill="none">
    <path d="M16.1138 14.443L24.5773 4.3545C24.7192 4.18684 24.5999 3.93213 24.3807 3.93213H21.8077C21.6562 3.93213 21.5111 3.99984 21.4112 4.11591L14.4308 12.4376L7.45035 4.11591C7.35362 3.99984 7.20853 3.93213 7.05377 3.93213H4.48085C4.26161 3.93213 4.14231 4.18684 4.28417 4.3545L12.7477 14.443L4.28417 24.5316C4.2524 24.569 4.23201 24.6147 4.22543 24.6633C4.21886 24.7119 4.22637 24.7614 4.24707 24.8058C4.26778 24.8503 4.30082 24.8879 4.34226 24.9142C4.38369 24.9404 4.4318 24.9542 4.48085 24.954H7.05377C7.20531 24.954 7.3504 24.8862 7.45035 24.7702L14.4308 16.4485L21.4112 24.7702C21.5079 24.8862 21.653 24.954 21.8077 24.954H24.3807C24.5999 24.954 24.7192 24.6992 24.5773 24.5316L16.1138 14.443Z" />
</svg>