<svg width="914" height="260" viewBox="0 0 914 260" fill="none" xmlns="http://www.w3.org/2000/svg">
    <path d="M804.501 34.3047H109.314C48.9417 34.3047 0 83.2464 0 143.619V150.684C0 211.057 48.9417 259.999 109.314 259.999H804.501C864.874 259.999 913.815 211.057 913.815 150.684V143.619C913.815 83.2464 864.874 34.3047 804.501 34.3047Z" fill="#E3E3F3"/>
    <path d="M171.919 177.791C169.106 190.155 161.918 196.337 150.355 196.337H116.967C107.473 196.337 102.714 192.338 102.714 184.292C96.3848 193.876 88.5183 198.668 79.1143 198.668C75.8601 198.727 72.6397 198 69.7268 196.547C66.8139 195.095 64.2948 192.961 62.3836 190.327C57.8572 183.992 55.5933 176.319 55.9562 168.542C55.9562 152.384 60.65 139.636 70.0375 130.297C74.1584 126.125 79.09 122.841 84.5284 120.647C89.9668 118.453 95.7968 117.396 101.659 117.54H151.925L135.366 177.791H171.919ZM115.127 136.087H95.6734L89.5159 163.072C89.1729 164.586 88.992 166.132 88.9762 167.684C88.9762 174.43 93.8826 177.766 103.941 177.766L115.127 136.087Z" fill="#6362E7"/>
    <path d="M278.093 177.793C277.985 180.343 277.328 182.84 276.168 185.113C275.008 187.386 273.372 189.383 271.371 190.967C267.523 194.39 262.563 196.3 257.412 196.339H190.489C177.634 196.339 171.207 191.163 171.207 180.811C171.207 179.903 171.207 178.897 171.379 177.793C171.509 175.702 172.078 173.662 173.051 171.806C174.023 169.951 175.376 168.321 177.021 167.024C179.793 164.794 183.279 163.643 186.834 163.785C193.163 164.014 201.757 168.61 212.617 177.572C215.602 172.937 217.226 167.557 217.303 162.044C216.59 155.947 215.292 149.934 213.427 144.086L203.614 156.009H185.828L209.256 127.527C208.376 125.613 207.638 123.637 207.048 121.615C206.233 118.408 205.821 115.111 205.822 111.802L227.483 81.4316C237.296 83.5905 242.203 89.4209 242.203 98.9229C242.254 104.294 240.955 109.591 238.425 114.329C240.608 121.909 242.791 129.49 245.024 137.046C247.386 144.721 248.746 152.67 249.071 160.694C249.183 166.965 246.972 173.054 242.865 177.793H278.093Z" fill="#6362E7"/>
    <path d="M356.203 177.79C353.439 190.154 346.08 196.336 334.125 196.336H289.28C280.596 196.336 276.254 192.338 276.254 184.291C276.281 182.091 276.603 179.905 277.21 177.79L288.397 136.086H273.972L279.516 117.54C289.771 114.056 297.425 109.616 302.405 104.219C308.047 98.1186 314.066 87.071 320.46 71.0762H337.633L325.195 117.54H347.911C344.281 129.904 336.921 136.086 325.833 136.086H320.019L309.028 177.79H356.203Z" fill="#6362E7"/>
    <path d="M459.312 177.797C459.324 180.451 458.716 183.07 457.536 185.447C456.357 187.824 454.638 189.892 452.517 191.486C449.06 194.538 444.639 196.275 440.03 196.392H406.298C397.369 196.392 392.904 191.486 392.904 181.673C392.941 178.969 393.329 176.281 394.057 173.676L404.017 136.019H385.152L375.339 169.285C374.885 171.741 373.556 173.949 371.598 175.501C369.641 177.053 367.187 177.842 364.692 177.724H355.345L366.875 136.019C363.092 134.797 359.928 132.16 358.044 128.66C355.732 124.749 354.552 120.273 354.634 115.731C354.428 111.788 355.177 107.854 356.817 104.262C358.457 100.67 360.94 97.5269 364.054 95.1C369.414 91.0322 375.996 88.9045 382.723 89.0651H397.001L389.641 117.35H438.337L422.318 177.601L459.312 177.797Z" fill="#6362E7"/>
    <path d="M576.131 177.789C575.334 183.524 572.452 188.764 568.036 192.508C565.108 194.998 561.403 196.386 557.56 196.434H520.763C512.127 196.434 507.81 192.803 507.81 185.541C505.983 188.862 503.293 191.628 500.024 193.545C496.755 195.462 493.029 196.46 489.239 196.434H473.735C471.632 196.536 469.535 196.145 467.61 195.294C465.684 194.442 463.985 193.152 462.646 191.527C460.05 188.102 458.74 183.873 458.942 179.58C458.959 176.682 459.38 173.8 460.193 171.019L474.912 117.588H506.804L490.343 177.838H508.227L524.59 117.588H556.211L540.192 177.838L576.131 177.789Z" fill="#6362E7"/>
    <path d="M748.372 177.793C746.655 190.157 739.99 196.339 728.378 196.339H692.635C691.068 196.243 689.546 195.78 688.19 194.988C686.835 194.195 685.686 193.095 684.834 191.776C682.52 188.851 681.266 185.227 681.277 181.497C681.267 180.286 681.382 179.078 681.621 177.891C682.913 172.183 684.851 163.883 687.435 152.991L657.677 185.692C650.171 193.869 643.743 197.958 638.395 197.958C630.398 197.958 626.424 194.033 626.424 186.158C626.467 183.321 626.913 180.504 627.748 177.793L634.789 152.893L599.733 191.31C598.342 192.897 596.619 194.16 594.686 195.008C592.752 195.856 590.657 196.268 588.546 196.216H570.589L591.637 117.419H623.529L613.569 154.512L640.554 125.294C647.308 117.967 654.881 114.296 663.271 114.279C670.189 114.279 673.648 117.812 673.648 124.828C673.616 127.068 673.294 129.294 672.691 131.452L666.362 154.512L692.684 125.073C699.063 117.894 706.161 114.296 713.978 114.279C721.338 114.279 725.067 118.425 725.067 126.692C725.013 129.832 724.543 132.95 723.668 135.966L712.31 177.67L748.372 177.793Z" fill="#6362E7"/>
    <path d="M775.381 81.0605C777.123 83.5137 793.02 106.696 783.796 134.884C778.693 150.486 765.961 167.56 749.451 171.682C740.472 173.914 722.736 174.135 712.653 174.135H707.747L705.293 176.588L729.825 196.214C739.707 195.768 749.476 193.934 758.847 190.767C805.948 174.724 826.8 129.438 832.075 116.804L775.381 81.0605Z" fill="#6362E7"/>
    <path d="M851.359 65.953C859.542 65.953 866.176 59.319 866.176 51.1357C866.176 42.9523 859.542 36.3184 851.359 36.3184C843.175 36.3184 836.542 42.9523 836.542 51.1357C836.542 59.319 843.175 65.953 851.359 65.953Z" fill="#E3E3F3" stroke="url(#paint0_linear_2841_1394)" stroke-width="3" stroke-miterlimit="10"/>
    <path d="M876.183 123.258L864.579 102.7C863.595 100.955 862.118 99.5382 860.334 98.6264C858.55 97.7147 856.536 97.3483 854.545 97.5731L872.061 72.8449C873.214 71.3484 874.367 69.8029 875.471 68.2329C889.945 47.7732 890.338 21.4504 889.307 7.63894C889.208 6.4259 888.844 5.24941 888.24 4.1925C887.637 3.13559 886.809 2.22403 885.814 1.52216C884.82 0.820285 883.684 0.345212 882.486 0.130471C881.288 -0.0842704 880.057 -0.0334461 878.881 0.279357C865.487 3.88555 840.783 13.0114 826.309 33.4466C825.475 34.6241 824.69 35.7771 823.856 36.9546L805.531 62.8604C805.057 60.9462 804.037 59.2108 802.595 57.8651C801.154 56.5194 799.353 55.6214 797.41 55.28L774.179 51.1586C772.766 50.9098 771.311 51.1096 770.017 51.73C768.724 52.3503 767.657 53.3601 766.966 54.6176L744.888 94.8501C744.303 95.915 744.012 97.1163 744.045 98.3307C744.078 99.5451 744.434 100.729 745.076 101.76C745.718 102.792 746.623 103.634 747.698 104.2C748.772 104.766 749.979 105.036 751.192 104.982L777.319 103.902C779.988 103.791 782.507 102.637 784.335 100.689L826.039 130.127C824.844 132.49 824.607 135.223 825.377 137.756L833.031 162.779C833.402 163.932 834.072 164.967 834.972 165.778C835.873 166.589 836.971 167.147 838.157 167.396C839.343 167.645 840.574 167.576 841.724 167.196C842.875 166.816 843.904 166.139 844.708 165.232L875.324 131.059C876.253 130.006 876.834 128.691 876.988 127.295C877.142 125.898 876.86 124.488 876.183 123.258ZM842.574 63.4737C840.136 61.756 838.263 59.3535 837.192 56.5705C836.121 53.7874 835.901 50.7492 836.558 47.8406C837.215 44.932 838.721 42.2839 840.885 40.2319C843.049 38.1799 845.773 36.8162 848.712 36.3137C851.651 35.8112 854.674 36.1924 857.396 37.4091C860.118 38.6258 862.418 40.6232 864.005 43.1483C865.591 45.6733 866.392 48.6124 866.307 51.5931C866.221 54.5738 865.253 57.4621 863.524 59.892C861.215 63.1378 857.715 65.3369 853.788 66.0081C849.862 66.6794 845.83 65.7681 842.574 63.4737Z" fill="url(#paint1_linear_2841_1394)"/>
    <defs>
        <linearGradient id="paint0_linear_2841_1394" x1="832.837" y1="51.1357" x2="869.856" y2="51.1357" gradientUnits="userSpaceOnUse">
            <stop stop-color="#B1DBFF"/>
            <stop offset="1" stop-color="#AA98FE"/>
        </linearGradient>
        <linearGradient id="paint1_linear_2841_1394" x1="744.127" y1="83.7861" x2="889.651" y2="83.7861" gradientUnits="userSpaceOnUse">
            <stop stop-color="#6362E7"/>
            <stop offset="0.69" stop-color="#4F4FE7"/>
            <stop offset="1" stop-color="#4325FE"/>
        </linearGradient>
    </defs>
</svg>
