<svg width="248" height="247" viewBox="0 0 248 247" fill="none" xmlns="http://www.w3.org/2000/svg">
<path d="M124.117 246.997C192.105 246.997 247.22 191.882 247.22 123.894C247.22 55.9061 192.105 0.791016 124.117 0.791016C56.129 0.791016 1.01392 55.9061 1.01392 123.894C1.01392 191.882 56.129 246.997 124.117 246.997Z" fill="#E3E3F3"/>
<path d="M72.7745 136.895C75.9774 139.467 78.7195 142.566 80.8837 146.057C88.0001 157.648 89.6342 175.44 81.0975 186.191C70.6976 199.294 45.3165 201.798 26.4258 185.412C30.9189 192.549 36.139 199.202 42.0026 205.265C51.1739 215.084 62.0567 223.152 74.1184 229.073C100.523 241.855 125.018 239.87 134.364 238.999C138.549 238.602 142 238.052 144.428 237.61C116.939 227.866 103.577 204.684 108.555 188.741C112.16 177.181 124.667 171.5 128.958 169.789L72.7745 136.895Z" fill="url(#paint0_radial_2841_1409)"/>
<path d="M146.535 111.513C154.624 111.513 161.181 104.956 161.181 96.8679C161.181 88.7796 154.624 82.2227 146.535 82.2227C138.447 82.2227 131.89 88.7796 131.89 96.8679C131.89 104.956 138.447 111.513 146.535 111.513Z" fill="#E3E3F3" stroke="url(#paint1_linear_2841_1409)" stroke-width="4.76" stroke-miterlimit="10"/>
<path d="M171.061 168.095L159.638 147.814C158.668 146.088 157.211 144.686 155.448 143.784C153.685 142.882 151.695 142.52 149.727 142.744L167.03 118.31C168.16 116.783 169.29 115.255 170.405 113.728C184.699 93.5242 185.081 67.5169 184.057 53.8643C183.964 52.6625 183.607 51.496 183.012 50.4477C182.417 49.3993 181.598 48.4947 180.614 47.7981C179.631 47.1014 178.506 46.6298 177.319 46.4166C176.133 46.2034 174.914 46.2539 173.749 46.5646C160.524 50.1381 136.136 59.1482 121.826 79.337C121.017 80.4976 120.299 81.643 119.459 82.8036L101.317 108.429C100.853 106.535 99.8483 104.818 98.4244 103.486C97.0006 102.155 95.2197 101.267 93.2993 100.931L70.3922 96.8686C68.9973 96.6243 67.5609 96.8228 66.2846 97.4363C65.0083 98.0498 63.9561 99.0475 63.2757 100.289L41.5139 139.995C40.9402 141.048 40.6562 142.235 40.6908 143.434C40.7254 144.633 41.0773 145.801 41.7108 146.819C42.3442 147.838 43.2364 148.67 44.2964 149.231C45.3564 149.792 46.5463 150.062 47.7446 150.013L73.5533 148.929C76.189 148.823 78.6782 147.688 80.4866 145.768L121.582 174.875C120.4 177.206 120.164 179.904 120.925 182.404L128.561 207.113C128.911 208.261 129.56 209.295 130.442 210.109C131.323 210.923 132.405 211.488 133.577 211.746C134.749 212.004 135.969 211.946 137.111 211.577C138.253 211.209 139.276 210.543 140.076 209.648L170.313 175.913C171.238 174.851 171.807 173.526 171.942 172.124C172.076 170.722 171.768 169.313 171.061 168.095ZM137.877 109.055C135.476 107.355 133.634 104.981 132.583 102.233C131.532 99.4858 131.319 96.4884 131.971 93.62C132.623 90.7515 134.111 88.1409 136.247 86.1181C138.383 84.0954 141.07 82.7513 143.97 82.256C146.87 81.7606 149.851 82.1361 152.537 83.3351C155.224 84.534 157.494 86.5026 159.062 88.9918C160.629 91.481 161.423 94.3791 161.344 97.3197C161.264 100.26 160.315 103.111 158.615 105.512C157.486 107.107 156.054 108.463 154.401 109.505C152.748 110.546 150.906 111.251 148.98 111.58C147.054 111.909 145.082 111.855 143.177 111.422C141.272 110.989 139.471 110.185 137.877 109.055Z" fill="url(#paint2_linear_2841_1409)"/>
<path d="M124.315 9.16285C146.929 9.16285 169.035 15.8686 187.838 28.4321C206.64 40.9957 221.295 58.8527 229.949 79.745C238.603 100.637 240.867 123.627 236.456 145.806C232.044 167.985 221.154 188.358 205.164 204.349C189.174 220.339 168.801 231.228 146.622 235.64C124.442 240.052 101.453 237.788 80.5605 229.134C59.6682 220.48 41.8111 205.825 29.2476 187.022C16.6841 168.22 9.97834 146.114 9.97834 123.5C10.0308 93.192 22.0939 64.1404 43.5249 42.7094C64.9559 21.2784 94.0075 9.21534 124.315 9.16285ZM124.315 0C99.8895 0 76.012 7.24315 55.7026 20.8135C35.3931 34.3838 19.5638 53.6719 10.2164 76.2386C0.868941 98.8052 -1.57677 123.637 3.1885 147.594C7.95378 171.55 19.716 193.556 36.9878 210.828C54.2596 228.099 76.2652 239.862 100.222 244.627C124.178 249.392 149.01 246.946 171.577 237.599C194.144 228.252 213.432 212.422 227.002 192.113C240.572 171.803 247.815 147.926 247.815 123.5C247.815 90.7457 234.804 59.333 211.643 36.1723C188.482 13.0116 157.07 0 124.315 0Z" fill="url(#paint3_linear_2841_1409)"/>
<defs>
<radialGradient id="paint0_radial_2841_1409" cx="0" cy="0" r="1" gradientUnits="userSpaceOnUse" gradientTransform="translate(85.3887 188.283) scale(96.0878 96.0878)">
<stop offset="0.03" stop-color="#4F4FE7"/>
<stop offset="1" stop-color="#6362E7"/>
</radialGradient>
<linearGradient id="paint1_linear_2841_1409" x1="128.256" y1="96.8679" x2="164.8" y2="96.8679" gradientUnits="userSpaceOnUse">
<stop stop-color="#B1DBFF"/>
<stop offset="1" stop-color="#AA98FE"/>
</linearGradient>
<linearGradient id="paint2_linear_2841_1409" x1="40.6282" y1="129.122" x2="184.378" y2="129.122" gradientUnits="userSpaceOnUse">
<stop stop-color="#6362E7"/>
<stop offset="0.69" stop-color="#4F4FE7"/>
<stop offset="1" stop-color="#4325FE"/>
</linearGradient>
<linearGradient id="paint3_linear_2841_1409" x1="0.815485" y1="123.5" x2="247.815" y2="123.5" gradientUnits="userSpaceOnUse">
<stop stop-color="#6362E7"/>
<stop offset="0.69" stop-color="#4F4FE7"/>
<stop offset="1" stop-color="#4325FE"/>
</linearGradient>
</defs>
</svg>
