<svg width="24" height="24" viewBox="0 0 24 24" fill="none" xmlns="http://www.w3.org/2000/svg">
<path d="M19.7 0.734375H1.3C0.8575 0.734375 0.5 1.09187 0.5 1.53438V19.9344C0.5 20.3769 0.8575 20.7344 1.3 20.7344H19.7C20.1425 20.7344 20.5 20.3769 20.5 19.9344V1.53438C20.5 1.09187 20.1425 0.734375 19.7 0.734375ZM18.7 18.9344H2.3V2.53438H18.7V18.9344ZM10 7.93438H14.6C14.71 7.93438 14.8 7.84438 14.8 7.73438V6.53438C14.8 6.42438 14.71 6.33437 14.6 6.33437H10C9.89 6.33437 9.8 6.42438 9.8 6.53438V7.73438C9.8 7.84438 9.89 7.93438 10 7.93438ZM10 11.5344H14.6C14.71 11.5344 14.8 11.4444 14.8 11.3344V10.1344C14.8 10.0244 14.71 9.93437 14.6 9.93437H10C9.89 9.93437 9.8 10.0244 9.8 10.1344V11.3344C9.8 11.4444 9.89 11.5344 10 11.5344ZM10 15.1344H14.6C14.71 15.1344 14.8 15.0444 14.8 14.9344V13.7344C14.8 13.6244 14.71 13.5344 14.6 13.5344H10C9.89 13.5344 9.8 13.6244 9.8 13.7344V14.9344C9.8 15.0444 9.89 15.1344 10 15.1344ZM6.2 7.13438C6.2 7.39959 6.30536 7.65395 6.49289 7.84148C6.68043 8.02902 6.93478 8.13438 7.2 8.13438C7.46522 8.13438 7.71957 8.02902 7.90711 7.84148C8.09464 7.65395 8.2 7.39959 8.2 7.13438C8.2 6.86916 8.09464 6.6148 7.90711 6.42727C7.71957 6.23973 7.46522 6.13438 7.2 6.13438C6.93478 6.13438 6.68043 6.23973 6.49289 6.42727C6.30536 6.6148 6.2 6.86916 6.2 7.13438ZM6.2 10.7344C6.2 10.9996 6.30536 11.2539 6.49289 11.4415C6.68043 11.629 6.93478 11.7344 7.2 11.7344C7.46522 11.7344 7.71957 11.629 7.90711 11.4415C8.09464 11.2539 8.2 10.9996 8.2 10.7344C8.2 10.4692 8.09464 10.2148 7.90711 10.0273C7.71957 9.83973 7.46522 9.73438 7.2 9.73438C6.93478 9.73438 6.68043 9.83973 6.49289 10.0273C6.30536 10.2148 6.2 10.4692 6.2 10.7344ZM6.2 14.3344C6.2 14.5996 6.30536 14.8539 6.49289 15.0415C6.68043 15.229 6.93478 15.3344 7.2 15.3344C7.46522 15.3344 7.71957 15.229 7.90711 15.0415C8.09464 14.8539 8.2 14.5996 8.2 14.3344C8.2 14.0692 8.09464 13.8148 7.90711 13.6273C7.71957 13.4397 7.46522 13.3344 7.2 13.3344C6.93478 13.3344 6.68043 13.4397 6.49289 13.6273C6.30536 13.8148 6.2 14.0692 6.2 14.3344Z" fill="#242934"/>
</svg>
