<svg
        width="24"
        height="24"
        viewBox="0 0 24 24"
        fill="none"
        xmlns="http://www.w3.org/2000/svg"
>
    <g clip-path="url(#clip0_2148_692)">
        <path
                d="M20.193 10.8613C19.6691 9.68919 18.9074 8.63718 17.9557 7.77108L17.1703 7.05486C17.1436 7.0312 17.1115 7.01442 17.0768 7.00598C17.0421 6.99753 17.0058 6.99769 16.9712 7.00643C16.9366 7.01517 16.9046 7.03222 16.8781 7.0561C16.8517 7.07998 16.8315 7.10995 16.8194 7.14338L16.4686 8.14394C16.25 8.77164 15.8479 9.41275 15.2784 10.0431C15.2406 10.0834 15.1974 10.0941 15.1677 10.0968C15.1381 10.0995 15.0922 10.0941 15.0517 10.0565C15.0139 10.0243 14.995 9.97606 14.9977 9.92778C15.0976 8.31293 14.6118 6.49154 13.5484 4.50919C12.6686 2.86216 11.446 1.57726 9.91846 0.681315L8.80383 0.0294753C8.65809 -0.0563636 8.47187 0.0562999 8.47997 0.225295L8.53934 1.51288C8.57982 2.39273 8.47727 3.17064 8.23437 3.81712C7.93749 4.60845 7.51107 5.34344 6.9659 6.00333C6.58651 6.46193 6.15649 6.87674 5.68395 7.23995C4.54585 8.10951 3.62043 9.22372 2.97699 10.4991C2.33513 11.7857 2.00078 13.2022 2 14.6382C2 15.9043 2.25099 17.1302 2.74758 18.2863C3.22708 19.3995 3.91905 20.4097 4.78522 21.2612C5.65966 22.1196 6.67443 22.7956 7.80525 23.265C8.97656 23.7532 10.218 24 11.5 24C12.7819 24 14.0234 23.7532 15.1947 23.2677C16.3228 22.801 17.3485 22.1204 18.2148 21.2639C19.0892 20.4055 19.7747 19.4023 20.2524 18.289C20.7482 17.136 21.0026 15.8948 21 14.6409C21 13.3318 20.7301 12.0603 20.193 10.8613ZM16.9247 19.9629C15.4754 21.39 13.5511 22.1732 11.5 22.1732C9.44886 22.1732 7.52457 21.39 6.07528 19.9629C4.63139 18.5385 3.83523 16.65 3.83523 14.6409C3.83523 13.474 4.09971 12.3554 4.62059 11.3146C5.12798 10.298 5.88366 9.3886 6.80127 8.68848C7.38649 8.24371 7.91728 7.73234 8.38281 7.16484C9.05752 6.34669 9.5865 5.43465 9.95354 4.45555C10.1041 4.05167 10.2135 3.63379 10.2801 3.2082C10.9305 3.80371 11.4757 4.52261 11.9318 5.3649C12.8332 7.04413 13.2489 8.53826 13.1679 9.80975C13.1485 10.1092 13.1977 10.4091 13.3118 10.687C13.4259 10.9648 13.6018 11.2133 13.8264 11.4139C14.021 11.5886 14.2487 11.7232 14.4961 11.8098C14.7435 11.8963 15.0057 11.9332 15.2676 11.9182C15.7993 11.8913 16.2878 11.658 16.644 11.2636C17.003 10.864 17.3133 10.4562 17.5724 10.0404C17.9503 10.5206 18.266 11.0437 18.517 11.607C18.9461 12.5673 19.1648 13.5893 19.1648 14.6409C19.1648 16.65 18.3686 18.5412 16.9247 19.9629Z"
                fill="#242934"
        />
    </g>
    <defs>
        <clipPath id="clip0_2148_692">
            <rect
                    width="24"
                    height="24"
                    fill="white"
            />
        </clipPath>
    </defs>
</svg>